<?xml version="1.0" standalone="no"?><!DOCTYPE svg PUBLIC "-//W3C//DTD SVG 1.1//EN" "http://www.w3.org/Graphics/SVG/1.1/DTD/svg11.dtd"><svg t="1607258122476" class="icon" viewBox="0 0 1024 1024" version="1.1" xmlns="http://www.w3.org/2000/svg" p-id="7402" xmlns:xlink="http://www.w3.org/1999/xlink" width="200" height="200"><defs><style type="text/css"></style></defs><path d="M820.48 208.49664A432.9728 432.9728 0 1 0 947.2 514.56a432.9728 432.9728 0 0 0-126.72-306.06336z m-151.69536 413.7984a32.91136 32.91136 0 1 1-46.53568 46.55616L514.56 561.11616l-107.68896 107.73504a32.91136 32.91136 0 0 1-46.53568-46.55616L468.02432 514.56 360.33536 406.81984a32.91136 32.91136 0 1 1 46.53568-46.55616L514.56 468.00384l107.68896-107.74016a32.91136 32.91136 0 1 1 46.53568 46.55616L561.09568 514.56z" fill="#5288F5" p-id="7403"></path></svg>