<?xml version="1.0" standalone="no"?><!DOCTYPE svg PUBLIC "-//W3C//DTD SVG 1.1//EN" "http://www.w3.org/Graphics/SVG/1.1/DTD/svg11.dtd"><svg t="1607674955402" class="icon" viewBox="0 0 1024 1024" version="1.1" xmlns="http://www.w3.org/2000/svg" p-id="11208" xmlns:xlink="http://www.w3.org/1999/xlink" width="200" height="200"><defs><style type="text/css"></style></defs><path d="M510.4 621.57c-12.62 0-25.19-4.94-34.62-14.75l-304-316.78c-18.38-19.16-17.75-49.53 1.38-67.87 19.12-18.44 49.5-17.75 67.88 1.38l304 316.78c18.38 19.16 17.75 49.53-1.38 67.88-9.33 8.93-21.33 13.36-33.26 13.36z" fill="#1296db" p-id="11209"></path><path d="M513.58 621.57c-11.94 0-23.94-4.44-33.25-13.38-19.12-18.34-19.75-48.72-1.38-67.88l304-316.78c18.31-19.12 48.69-19.81 67.88-1.38 19.12 18.34 19.75 48.72 1.38 67.87l-304 316.78c-9.44 9.84-22 14.77-34.63 14.77z" fill="#1296db" p-id="11210"></path><path d="M830.4 815.2H193.58c-26.5 0-48-21.5-48-48s21.5-48 48-48H830.4c26.5 0 48 21.5 48 48s-21.5 48-48 48z" fill="#1296db" p-id="11211"></path></svg>