<?xml version="1.0" standalone="no"?><!DOCTYPE svg PUBLIC "-//W3C//DTD SVG 1.1//EN" "http://www.w3.org/Graphics/SVG/1.1/DTD/svg11.dtd"><svg t="1611030562394" class="icon" viewBox="0 0 1024 1024" version="1.1" xmlns="http://www.w3.org/2000/svg" p-id="2285" xmlns:xlink="http://www.w3.org/1999/xlink" width="200" height="200"><defs><style type="text/css"></style></defs><path d="M636.2 514.1c0 12.2-1.8 24-5.1 35.2-43.2 4.2-77.5 38.6-81.7 81.8-11.2 3.4-23.1 5.2-35.4 5.2-67.5 0-122.2-54.7-122.2-122.2S446.5 392 514 392s122.2 54.7 122.2 122.1z" fill="#29ABE2" p-id="2286"></path><path d="M514 65.5c-246.5 0-446.3 199.8-446.3 446.3S267.5 958.1 514 958.1s446.3-199.8 446.3-446.3S760.5 65.5 514 65.5z m276 624.9c-3.3-0.4-6.7-0.5-10.1-0.5-50.3 0-91 40.8-91 91 0 3.3 0.2 6.6 0.5 9.8-29 18.4-61 32.4-95.2 41-14.8-30.1-45.8-50.8-81.7-50.8-35.6 0-66.4 20.4-81.3 50.2-36.1-9.4-69.8-24.8-99.9-45.1 0.1-1.5 0.1-3.1 0.1-4.6 0-50.3-40.7-91-91-91h-2.5c-19-29.7-33.4-62.7-42-98 26.6-15.9 44.5-45 44.5-78.2 0-33.3-17.9-62.3-44.5-78.2 9.2-37.4 24.7-72.3 45.5-103.3 49.5-0.5 89.6-40.7 90-90.3 30-20.2 63.5-35.5 99.5-44.9 15.6 27.7 45.3 46.4 79.3 46.4 34.8 0 64.9-19.5 80.3-48.1 35.9 8.6 69.5 23.1 99.7 42.4 0 1.2-0.1 2.3-0.1 3.5 0 50.3 40.7 91 91 91 1.8 0 3.6-0.1 5.3-0.2 19.5 29.2 34.5 61.7 43.8 96.5-29.8 14.9-50.3 45.8-50.3 81.4 0 36.3 21.3 67.7 52 82.3-8.5 35.1-22.8 68-41.9 97.7z" fill="#29ABE2" p-id="2287"></path></svg>