<?xml version="1.0" standalone="no"?><!DOCTYPE svg PUBLIC "-//W3C//DTD SVG 1.1//EN" "http://www.w3.org/Graphics/SVG/1.1/DTD/svg11.dtd"><svg t="1615175423103" class="icon" viewBox="0 0 1025 1024" version="1.1" xmlns="http://www.w3.org/2000/svg" p-id="6148" xmlns:xlink="http://www.w3.org/1999/xlink" width="200.1953125" height="200"><defs><style type="text/css"></style></defs><path d="M513 193c138.604 0 252.815 104.44 268.23 238.915C882.665 441.589 962 527.03 962 631c0 110.457-89.543 200-200 200H264c-110.457 0-200-89.543-200-200 0-103.97 79.335-189.411 180.77-199.088C260.186 297.44 374.397 193 513 193z m0.653 193h-0.153c-8.24-0.039-16.493 3.085-22.78 9.373L362.025 524.066c-12.497 12.497-12.497 32.758 0 45.255s32.758 12.497 45.255 0l73.718-73.72 0.001 192.746c0 17.673 14.327 32 32 32 17.673 0 32-14.327 32-32V494.6l74.72 74.72 0.377 0.371c12.524 12.124 32.505 12 44.877-0.371 12.497-12.497 12.497-32.758 0-45.255L536.281 395.373l-0.385-0.38c-6.198-5.995-14.22-8.993-22.243-8.993z" fill="#1296db" p-id="6149"></path></svg>